<svg id="svg" version="1.1" xmlns="http://www.w3.org/2000/svg" xmlns:xlink="http://www.w3.org/1999/xlink" width="400" height="318.82963662104765" viewBox="0, 0, 400,318.82963662104765"><rect width="400" height="318.82963662104765" fill="black"/><g id="svgg"><path id="path0" d="M227.938 87.887 C 205.399 89.593,181.570 98.339,154.224 114.942 C 149.329 117.914,149.300 117.972,152.724 117.977 C 154.639 117.980,154.752 117.957,155.650 117.384 C 170.822 107.698,194.515 97.660,211.043 93.916 C 226.418 90.434,243.256 90.728,270.977 94.962 C 289.612 97.808,293.119 98.705,297.931 101.858 C 301.163 103.975,301.336 104.927,298.904 107.202 C 296.968 109.013,296.707 109.075,288.060 109.773 C 283.210 110.164,277.669 110.804,271.071 111.736 C 236.617 116.600,194.111 118.976,152.714 118.351 C 125.378 117.939,122.369 117.923,115.149 118.154 C 78.462 119.330,48.875 126.342,31.052 138.084 C 25.730 141.591,24.646 143.013,26.201 144.448 C 27.056 145.237,27.282 145.224,28.391 144.321 C 40.654 134.332,61.559 127.277,88.833 123.922 C 104.057 122.049,119.559 121.572,143.936 122.228 C 190.125 123.470,234.438 121.404,273.431 116.191 C 301.261 112.470,344.095 111.568,366.322 114.236 C 368.200 114.461,369.878 114.592,370.050 114.526 C 370.457 114.370,370.517 110.334,370.121 109.792 C 369.763 109.303,364.152 108.614,356.179 108.080 L 352.094 107.807 346.269 106.304 C 308.213 96.483,273.073 90.096,246.909 88.245 C 243.107 87.976,230.027 87.729,227.938 87.887 M261.001 94.998 C 260.429 95.923,257.361 112.279,257.697 112.615 C 258.055 112.973,264.141 112.294,264.626 111.842 C 264.912 111.575,267.709 96.208,267.548 95.788 C 267.419 95.451,267.272 95.414,264.243 94.960 C 261.090 94.487,261.319 94.485,261.001 94.998 M365.022 104.406 C 362.353 104.626,358.616 105.295,358.302 105.609 C 358.077 105.835,357.953 107.709,358.150 107.907 C 358.177 107.933,358.578 107.868,359.042 107.762 C 361.109 107.293,365.042 106.826,367.863 106.715 L 370.931 106.595 370.722 107.193 C 370.426 108.044,370.590 108.281,371.569 108.415 C 372.671 108.566,372.955 108.448,373.102 107.780 C 373.167 107.482,373.380 107.036,373.574 106.790 C 375.320 104.570,372.511 103.787,365.022 104.406 M179.235 110.975 C 178.102 111.498,174.988 114.946,174.988 115.679 C 174.988 117.894,180.536 117.812,180.953 115.590 C 181.098 114.816,181.087 114.817,184.409 115.434 C 187.691 116.043,188.068 116.039,188.581 115.388 C 189.326 114.440,188.562 111.894,187.277 111.043 C 186.384 110.451,180.479 110.401,179.235 110.975 M362.239 114.875 C 362.037 115.118,362.163 115.686,362.996 118.281 L 363.995 121.395 363.862 123.732 C 363.699 126.590,363.500 126.430,367.060 126.293 L 369.703 126.192 369.762 125.468 L 369.822 124.744 367.530 124.807 L 365.237 124.870 365.347 124.115 C 365.631 122.159,365.506 120.939,364.800 118.766 C 364.417 117.589,364.139 116.591,364.181 116.549 C 364.222 116.508,365.312 116.717,366.602 117.014 C 369.248 117.624,369.231 117.626,369.231 116.753 C 369.231 115.944,369.437 116.038,365.929 115.252 C 362.488 114.481,362.559 114.489,362.239 114.875 M269.561 117.701 C 266.714 117.985,266.676 118.010,267.421 119.118 C 267.716 119.557,267.701 119.553,267.169 119.060 C 266.091 118.061,265.682 118.683,266.429 120.183 C 270.252 127.848,267.514 140.344,258.839 154.825 C 257.196 157.569,256.992 158.188,257.730 158.188 C 258.576 158.188,262.933 151.638,265.484 146.530 C 270.284 136.919,271.306 129.089,268.730 121.661 C 268.588 121.251,268.556 121.216,269.296 122.272 C 269.723 122.881,271.813 121.548,272.493 120.233 C 273.023 119.209,272.774 117.355,272.119 117.439 C 272.010 117.453,270.859 117.571,269.561 117.701 M159.354 124.157 C 154.641 131.501,153.573 142.874,156.629 153.158 C 157.138 154.871,157.440 155.241,157.930 154.751 C 158.176 154.505,158.142 154.246,157.638 152.550 C 154.730 142.762,155.927 130.943,160.473 124.559 C 160.936 123.909,160.878 123.381,160.335 123.303 C 160.039 123.261,159.791 123.475,159.354 124.157 M67.107 127.970 C 55.060 131.016,43.417 135.296,43.417 136.676 C 43.417 137.183,43.478 137.168,45.701 136.123 C 48.981 134.581,53.717 132.917,59.164 131.393 C 61.914 130.624,61.949 130.654,59.707 131.848 C 57.073 133.252,54.364 134.898,51.399 136.896 L 48.904 138.577 40.733 140.501 L 32.563 142.426 32.563 143.084 C 32.563 144.049,32.459 144.062,41.483 141.942 L 49.711 140.010 51.991 138.458 C 58.678 133.908,66.541 129.943,71.709 128.516 C 73.410 128.046,73.943 127.563,73.436 126.952 C 73.067 126.508,72.574 126.587,67.107 127.970 M306.654 127.263 C 298.878 128.047,291.709 131.609,286.314 137.369 C 285.090 138.677,284.822 139.254,285.185 139.805 C 285.585 140.412,286.121 140.254,288.077 138.953 C 303.950 128.396,322.069 129.688,334.646 142.275 C 336.130 143.759,337.493 144.974,337.676 144.974 C 338.693 144.974,338.693 143.920,337.675 142.225 C 331.391 131.761,319.401 125.979,306.654 127.263 M130.565 130.157 C 121.402 130.724,114.470 131.230,114.361 131.340 C 113.959 131.741,114.408 132.172,118.075 134.910 C 133.072 146.107,145.702 155.463,146.103 155.672 C 146.836 156.055,152.397 156.023,152.786 155.634 C 153.260 155.160,152.953 154.791,152.080 154.785 C 151.374 154.780,150.949 154.522,147.711 152.132 C 145.739 150.676,144.001 149.412,143.850 149.324 C 143.622 149.190,143.618 149.113,143.824 148.864 C 144.269 148.329,143.934 147.995,142.951 147.992 C 141.578 147.989,132.610 141.417,132.610 140.414 C 132.610 139.791,132.597 139.782,131.628 139.689 C 130.716 139.601,130.370 139.392,126.784 136.763 L 122.922 133.932 135.977 132.035 L 149.033 130.138 149.092 129.628 L 149.152 129.118 147.865 129.141 C 147.158 129.155,139.373 129.612,130.565 130.157 M83.058 131.215 C 75.403 131.647,67.954 134.999,62.448 140.492 C 60.290 142.644,59.950 143.233,60.507 143.849 C 61.023 144.419,61.301 144.324,63.622 142.784 C 79.717 132.110,98.988 134.011,111.071 147.466 C 112.559 149.124,112.766 149.247,113.382 148.844 C 114.054 148.404,113.935 147.846,112.774 145.994 C 106.404 135.829,95.695 130.504,83.058 131.215 M125.027 136.904 L 128.693 139.594 127.569 139.651 L 126.445 139.707 122.962 137.102 C 119.952 134.852,119.537 134.481,119.909 134.375 C 121.054 134.048,121.301 134.171,125.027 136.904 M135.201 144.361 L 140.023 147.900 138.828 147.956 L 137.633 148.011 132.903 144.495 C 130.302 142.561,128.174 140.943,128.174 140.900 C 128.174 140.857,128.670 140.821,129.276 140.821 L 130.378 140.821 135.201 144.361 M145.418 151.911 L 149.219 154.696 147.955 154.751 L 146.690 154.807 142.865 151.967 L 139.041 149.127 140.328 149.127 L 141.616 149.127 145.418 151.911 M150.711 157.817 C 149.687 157.999,132.725 163.944,132.452 164.216 C 132.364 164.305,132.321 164.535,132.358 164.727 C 132.461 165.268,133.562 165.254,155.073 164.431 C 165.871 164.018,192.968 162.995,215.290 162.157 C 259.203 160.509,258.207 160.556,258.367 160.141 C 258.646 159.413,260.095 159.450,178.103 158.108 C 168.344 157.948,158.405 157.779,156.017 157.732 C 153.629 157.684,151.241 157.723,150.711 157.817 " stroke="none" fill="#fc1c2b" fill-rule="evenodd"></path><path id="path1" d="M191.505 2.377 C 191.090 2.416,189.391 2.541,187.730 2.653 C 127.377 6.750,73.848 47.035,52.299 104.578 C 49.663 111.616,45.241 127.041,45.721 127.521 C 45.756 127.555,46.929 127.160,48.328 126.644 C 49.728 126.127,50.960 125.675,51.066 125.640 C 51.173 125.604,51.459 124.737,51.702 123.713 C 64.602 69.318,108.135 25.431,162.718 11.793 C 234.522 -6.147,308.833 29.995,338.937 97.499 C 340.222 100.381,340.000 100.178,342.037 100.322 C 342.925 100.384,344.099 100.482,344.644 100.538 C 345.899 100.668,345.910 100.809,344.382 97.227 C 321.797 44.284,271.680 8.124,213.401 2.723 C 210.405 2.445,193.605 2.180,191.505 2.377 M0.975 175.914 C 1.010 176.008,2.554 177.664,4.408 179.595 L 7.777 183.105 12.903 183.105 L 18.030 183.105 18.949 179.660 C 19.454 177.765,19.907 176.109,19.954 175.979 C 20.023 175.792,18.048 175.743,10.477 175.743 C 4.850 175.743,0.938 175.814,0.975 175.914 M39.230 176.962 L 37.633 178.184 35.240 187.110 C 33.923 192.019,32.601 196.949,32.301 198.065 L 31.756 200.094 36.885 200.094 L 42.014 200.094 42.952 196.555 L 43.889 193.016 46.310 192.963 C 48.556 192.914,48.724 192.934,48.634 193.246 C 48.339 194.263,46.815 199.925,46.815 200.003 C 46.815 200.247,56.970 200.088,57.064 199.843 C 57.117 199.705,58.452 194.779,60.029 188.896 L 62.898 178.201 61.968 177.019 L 61.039 175.838 50.932 175.789 L 40.826 175.740 39.230 176.962 M66.182 187.685 C 64.428 194.250,62.953 199.730,62.905 199.861 C 62.835 200.051,63.876 200.090,67.971 200.050 L 73.125 200.000 74.209 195.941 C 74.805 193.709,75.387 191.564,75.502 191.175 L 75.711 190.467 76.883 190.472 L 78.056 190.477 78.950 191.663 L 79.843 192.850 78.902 196.292 C 78.385 198.185,77.961 199.815,77.961 199.914 C 77.961 200.024,79.948 200.094,83.058 200.094 C 85.861 200.094,88.155 200.055,88.155 200.006 C 88.155 199.957,88.670 198.025,89.299 195.711 C 89.929 193.398,90.513 191.244,90.597 190.924 C 90.732 190.410,90.645 190.201,89.850 189.141 L 88.950 187.940 90.487 186.780 L 92.025 185.620 93.302 180.823 C 94.005 178.185,94.578 175.963,94.576 175.885 C 94.568 175.539,84.410 175.726,84.309 176.074 C 84.257 176.255,83.818 177.897,83.335 179.722 L 82.456 183.039 80.935 184.205 C 79.405 185.376,76.822 186.003,77.107 185.134 C 77.149 185.005,77.709 182.948,78.349 180.563 C 78.990 178.179,79.557 176.119,79.608 175.985 C 79.682 175.792,78.662 175.744,74.536 175.745 L 69.372 175.747 66.182 187.685 M101.330 176.955 C 99.994 177.963,99.692 178.289,99.536 178.890 C 99.433 179.288,98.264 183.664,96.937 188.615 L 94.525 197.617 95.436 198.857 L 96.347 200.097 107.756 200.049 L 119.166 200.000 120.078 196.602 C 120.579 194.733,120.992 193.098,120.995 192.968 C 120.999 192.783,119.384 192.732,113.531 192.732 C 106.508 192.732,106.068 192.713,106.157 192.402 C 106.210 192.220,106.356 191.711,106.483 191.269 L 106.714 190.467 112.968 190.467 L 119.222 190.467 119.830 188.155 C 120.165 186.883,120.438 185.736,120.437 185.606 C 120.435 185.423,119.080 185.370,114.299 185.370 C 110.673 185.370,108.164 185.299,108.164 185.196 C 108.164 185.100,108.264 184.591,108.385 184.066 L 108.606 183.109 116.169 183.060 L 123.732 183.011 124.623 179.707 C 125.113 177.891,125.518 176.255,125.522 176.074 C 125.530 175.763,124.870 175.743,114.234 175.743 L 102.936 175.743 101.330 176.955 M132.456 176.905 C 131.644 177.532,130.901 178.229,130.805 178.452 C 130.400 179.393,128.195 187.896,128.307 188.087 C 128.374 188.202,128.801 188.785,129.256 189.382 L 130.083 190.467 136.302 190.467 C 139.722 190.467,142.520 190.518,142.520 190.580 C 142.520 190.642,142.387 191.151,142.224 191.712 L 141.927 192.732 134.416 192.732 L 126.905 192.732 126.018 196.083 C 125.530 197.926,125.087 199.582,125.035 199.764 C 124.944 200.076,125.572 200.094,136.347 200.094 L 147.756 200.094 149.244 198.949 C 151.024 197.579,150.710 198.264,152.345 192.174 C 153.915 186.329,153.852 186.751,153.281 185.979 L 152.831 185.370 145.964 185.370 C 139.513 185.370,139.103 185.350,139.192 185.040 C 139.244 184.858,139.391 184.349,139.518 183.908 L 139.748 183.105 147.262 183.105 L 154.775 183.105 154.964 182.397 C 155.067 182.008,155.495 180.415,155.914 178.858 C 156.332 177.301,156.676 175.963,156.676 175.885 C 156.677 175.807,151.560 175.748,145.304 175.753 L 133.931 175.764 132.456 176.905 M179.438 176.923 C 180.049 177.572,181.623 179.228,182.936 180.604 L 185.325 183.105 192.804 183.105 C 200.883 183.105,200.502 183.054,200.122 184.084 C 200.033 184.324,199.904 184.756,199.835 185.043 L 199.708 185.565 204.845 185.515 L 209.982 185.465 210.883 182.161 C 211.988 178.113,211.986 178.332,210.930 176.911 L 210.062 175.743 194.195 175.743 L 178.329 175.743 179.438 176.923 M219.289 176.905 C 217.471 178.310,217.912 177.165,215.006 188.047 C 212.151 198.743,212.337 197.467,213.421 198.926 L 214.289 200.094 224.439 200.094 L 234.589 200.094 236.077 198.949 C 237.904 197.543,237.407 198.826,240.308 188.013 C 241.658 182.978,242.806 178.724,242.857 178.559 C 242.911 178.387,242.547 177.728,241.997 177.002 L 241.044 175.743 230.904 175.753 L 220.765 175.764 219.289 176.905 M249.308 175.993 C 249.255 176.130,247.920 181.054,246.342 186.935 L 243.472 197.628 244.377 198.861 L 245.283 200.094 255.460 200.094 L 265.637 200.094 267.182 198.888 L 268.727 197.682 271.602 186.949 C 273.183 181.045,274.475 176.109,274.473 175.979 C 274.470 175.796,273.330 175.743,269.416 175.743 L 264.363 175.743 262.101 184.236 L 259.840 192.729 257.420 192.731 C 255.203 192.732,255.009 192.705,255.101 192.402 C 255.157 192.220,256.143 188.546,257.293 184.238 C 258.444 179.929,259.429 176.255,259.483 176.074 C 259.614 175.634,249.476 175.554,249.308 175.993 M281.394 176.905 C 279.573 178.313,280.064 177.000,276.818 189.146 C 275.306 194.804,274.026 199.584,273.972 199.767 C 273.881 200.081,274.178 200.098,279.017 200.050 L 284.158 200.000 286.096 192.732 C 287.162 188.735,288.177 184.934,288.351 184.285 L 288.669 183.105 291.070 183.105 L 293.472 183.105 291.242 191.364 C 290.015 195.906,289.010 199.729,289.008 199.858 C 289.005 200.041,290.147 200.094,294.101 200.094 C 296.904 200.094,299.198 200.046,299.198 199.987 C 299.198 199.929,300.434 195.278,301.944 189.652 C 303.455 184.027,304.764 179.150,304.854 178.815 C 305.002 178.260,304.931 178.094,304.067 176.974 L 303.117 175.743 292.993 175.753 L 282.869 175.764 281.394 176.905 M310.246 179.188 C 309.747 181.083,309.299 182.738,309.252 182.865 C 309.185 183.043,310.048 183.109,312.929 183.148 L 316.692 183.200 314.559 191.128 C 313.386 195.488,312.373 199.290,312.309 199.575 L 312.193 200.094 317.297 200.094 L 322.402 200.094 322.615 199.292 C 322.733 198.851,323.663 195.389,324.681 191.600 C 325.700 187.810,326.630 184.349,326.747 183.908 L 326.961 183.105 330.729 183.105 C 332.802 183.105,334.497 183.067,334.497 183.019 C 334.497 182.972,334.922 181.380,335.441 179.481 C 335.960 177.582,336.385 175.965,336.385 175.886 C 336.385 175.808,330.708 175.743,323.770 175.743 L 311.154 175.743 310.246 179.188 M342.261 176.357 C 342.154 176.694,340.783 181.770,339.214 187.636 C 337.645 193.502,336.244 198.705,336.100 199.198 L 335.839 200.094 340.988 200.094 L 346.136 200.094 347.073 196.555 L 348.009 193.016 350.423 192.963 C 352.662 192.914,352.830 192.934,352.738 193.246 C 352.684 193.431,352.289 194.899,351.861 196.508 C 351.433 198.117,351.039 199.584,350.987 199.767 C 350.898 200.081,351.196 200.098,356.031 200.050 L 361.168 200.000 362.477 195.154 L 363.785 190.308 362.921 189.208 C 361.850 187.843,361.798 188.065,363.483 186.798 C 365.150 185.543,365.012 185.816,366.130 181.569 L 367.007 178.240 366.090 177.000 L 365.172 175.759 353.814 175.751 L 342.455 175.743 342.261 176.357 M373.470 175.979 C 373.043 177.095,370.017 188.857,370.114 189.024 C 370.184 189.143,370.621 189.729,371.085 190.326 L 371.929 191.411 378.110 191.411 L 384.290 191.411 384.005 192.544 L 383.719 193.676 376.205 193.676 C 369.210 193.676,368.683 193.699,368.593 194.007 C 368.540 194.188,368.187 195.518,367.808 196.962 C 367.430 198.406,367.076 199.702,367.022 199.841 C 366.942 200.051,368.864 200.094,378.331 200.094 L 389.737 200.094 391.271 198.950 C 392.366 198.133,392.860 197.634,392.996 197.204 C 393.332 196.142,398.679 176.131,398.679 175.934 C 398.679 175.810,396.888 175.743,393.603 175.743 L 388.527 175.743 388.211 176.923 C 388.037 177.572,387.494 179.589,387.004 181.406 L 386.114 184.710 383.691 184.763 C 381.750 184.805,381.286 184.766,381.362 184.568 C 381.415 184.431,381.944 182.499,382.539 180.274 C 383.134 178.048,383.662 176.119,383.713 175.986 C 383.788 175.792,382.775 175.743,378.683 175.743 C 374.759 175.743,373.539 175.798,373.470 175.979 M51.244 183.530 C 51.184 183.764,50.899 184.804,50.611 185.842 L 50.087 187.730 47.673 187.783 C 45.775 187.825,45.278 187.784,45.345 187.594 C 45.392 187.461,45.676 186.397,45.976 185.229 L 46.522 183.105 48.937 183.105 C 51.348 183.105,51.352 183.106,51.244 183.530 M230.944 184.757 C 230.697 185.665,230.123 187.810,229.668 189.523 L 228.842 192.638 226.431 192.691 L 224.021 192.744 224.133 192.314 C 224.195 192.077,224.771 189.908,225.414 187.494 L 226.583 183.105 228.988 183.105 L 231.392 183.105 230.944 184.757 M355.380 183.436 C 355.328 183.617,355.191 184.127,355.077 184.568 L 354.870 185.370 352.517 185.370 C 351.205 185.370,350.165 185.293,350.165 185.196 C 350.165 185.100,350.265 184.591,350.386 184.063 L 350.608 183.105 353.042 183.105 C 355.271 183.105,355.468 183.133,355.380 183.436 M7.168 185.418 C 7.165 185.444,6.287 188.735,5.216 192.732 L 3.270 200.000 14.596 200.049 C 20.825 200.075,25.947 200.072,25.978 200.040 C 26.036 199.983,27.938 192.969,27.938 192.815 C 27.938 192.770,25.134 192.732,21.708 192.732 C 18.282 192.732,15.479 192.709,15.479 192.681 C 15.479 192.653,15.903 191.060,16.421 189.142 C 16.939 187.223,17.364 185.590,17.365 185.512 C 17.366 185.389,7.182 185.294,7.168 185.418 M183.719 189.099 C 183.175 191.149,182.441 193.908,182.087 195.230 L 181.444 197.633 182.375 198.864 L 183.307 200.094 193.434 200.094 L 203.561 200.094 204.970 199.009 C 205.745 198.412,206.447 197.879,206.530 197.825 C 206.674 197.730,208.589 190.902,208.589 190.483 C 208.589 190.341,207.037 190.278,203.513 190.278 L 198.436 190.278 198.311 190.798 C 198.242 191.083,198.102 191.635,198.000 192.025 L 197.815 192.732 195.462 192.732 C 193.706 192.732,193.110 192.673,193.111 192.496 C 193.111 192.367,193.493 190.859,193.959 189.146 C 194.426 187.433,194.808 185.882,194.808 185.701 C 194.809 185.394,194.443 185.370,189.758 185.370 L 184.707 185.370 183.719 189.099 M1.619 207.692 C 2.015 208.134,3.575 209.790,5.086 211.373 L 7.834 214.252 15.337 214.252 C 19.464 214.252,22.841 214.316,22.841 214.394 C 22.840 214.602,20.390 223.750,20.314 223.826 C 20.279 223.862,19.193 223.867,17.902 223.838 L 15.555 223.785 16.447 220.481 C 16.938 218.664,17.346 217.029,17.353 216.848 C 17.366 216.541,17.003 216.517,12.274 216.517 L 7.180 216.517 7.051 217.036 C 6.980 217.322,6.100 220.635,5.096 224.398 L 3.270 231.241 14.759 231.241 L 26.249 231.241 27.707 230.096 C 29.494 228.692,28.982 230.041,31.998 218.807 L 34.551 209.298 33.651 208.103 L 32.751 206.907 16.826 206.899 L 0.900 206.890 1.619 207.692 M41.806 208.104 L 40.290 209.303 37.689 219.041 C 36.129 224.882,35.149 228.878,35.241 229.026 C 35.325 229.162,35.731 229.716,36.142 230.257 L 36.890 231.241 48.358 231.241 L 59.825 231.241 60.035 230.439 C 60.150 229.998,60.578 228.392,60.986 226.872 C 61.394 225.351,61.727 224.055,61.727 223.993 C 61.727 223.930,58.343 223.879,54.208 223.879 L 46.688 223.879 46.983 222.749 L 47.277 221.619 53.588 221.569 L 59.900 221.520 60.426 219.561 C 60.716 218.484,61.006 217.359,61.072 217.060 L 61.191 216.517 54.947 216.517 C 51.512 216.517,48.702 216.467,48.702 216.405 C 48.702 216.343,48.835 215.834,48.998 215.274 L 49.294 214.256 56.859 214.207 L 64.423 214.158 65.335 210.760 C 65.837 208.891,66.249 207.256,66.252 207.126 C 66.257 206.940,63.845 206.892,54.790 206.897 L 43.322 206.905 41.806 208.104 M71.058 210.525 L 70.101 214.158 73.843 214.209 C 75.900 214.237,77.584 214.303,77.584 214.355 C 77.584 214.457,73.314 230.339,73.135 230.904 C 73.034 231.222,73.323 231.241,78.197 231.241 L 83.367 231.241 85.634 222.794 L 87.900 214.346 91.679 214.295 L 95.458 214.244 96.431 210.682 C 96.967 208.723,97.404 207.069,97.404 207.005 C 97.404 206.942,91.692 206.890,84.710 206.891 L 72.015 206.892 71.058 210.525 M104.300 208.104 L 102.794 209.300 99.860 220.223 L 96.925 231.147 102.007 231.197 C 104.802 231.225,107.120 231.216,107.158 231.178 C 107.216 231.119,107.748 229.204,108.908 224.870 L 109.123 224.068 111.475 224.068 C 113.233 224.068,113.826 224.128,113.823 224.304 C 113.821 224.434,113.408 226.048,112.906 227.891 L 111.992 231.241 117.150 231.241 L 122.307 231.241 122.492 230.533 C 122.594 230.144,123.917 225.208,125.431 219.565 L 128.185 209.305 127.283 208.106 L 126.380 206.907 116.092 206.908 L 105.805 206.908 104.300 208.104 M131.492 218.830 C 129.735 225.397,128.260 230.875,128.215 231.005 C 128.151 231.190,129.248 231.241,133.297 231.240 L 138.462 231.239 141.655 219.300 C 143.412 212.734,144.886 207.256,144.932 207.126 C 144.997 206.941,143.900 206.890,139.850 206.891 L 134.686 206.891 131.492 218.830 M150.568 207.881 C 150.412 208.426,149.000 213.672,147.431 219.538 C 145.862 225.403,144.502 230.437,144.409 230.722 L 144.239 231.241 155.704 231.241 L 167.170 231.241 168.072 227.824 C 168.568 225.945,169.019 224.290,169.074 224.146 C 169.159 223.927,168.152 223.876,162.873 223.835 L 156.572 223.785 158.790 215.573 C 160.010 211.057,161.011 207.256,161.014 207.126 C 161.018 206.943,159.880 206.890,155.936 206.890 L 150.853 206.890 150.568 207.881 M179.422 207.126 C 179.376 207.256,177.903 212.714,176.150 219.254 L 172.962 231.147 178.062 231.197 C 180.867 231.225,183.184 231.225,183.210 231.197 C 183.269 231.136,189.712 207.159,189.712 207.002 C 189.712 206.758,179.510 206.881,179.422 207.126 M196.578 208.027 C 195.761 208.652,195.028 209.311,194.950 209.490 C 194.787 209.864,189.146 230.861,189.146 231.094 C 189.146 231.178,191.450 231.225,194.267 231.197 L 199.387 231.147 201.631 222.760 C 202.864 218.148,203.904 214.344,203.941 214.307 C 203.977 214.270,205.064 214.264,206.356 214.293 L 208.704 214.346 206.483 222.558 C 205.262 227.074,204.259 230.875,204.255 231.005 C 204.249 231.188,205.387 231.241,209.339 231.241 L 214.430 231.241 214.714 230.250 C 216.078 225.478,220.285 209.407,220.217 209.229 C 220.169 209.104,219.763 208.527,219.314 207.947 L 218.499 206.891 208.282 206.891 L 198.064 206.890 196.578 208.027 M227.688 208.043 C 226.276 209.096,226.120 209.279,225.868 210.166 C 225.717 210.700,224.531 215.115,223.233 219.977 L 220.873 228.817 221.762 230.021 L 222.652 231.226 232.917 231.233 L 243.181 231.241 244.721 230.066 L 246.261 228.891 247.537 224.073 C 248.239 221.423,248.810 219.190,248.805 219.110 C 248.800 219.031,245.933 218.989,242.434 219.016 L 236.071 219.066 235.856 219.821 C 235.738 220.236,235.584 220.809,235.514 221.095 L 235.387 221.614 236.617 221.614 C 237.294 221.614,237.846 221.678,237.844 221.756 C 237.842 221.833,237.731 222.322,237.596 222.841 L 237.352 223.785 234.957 223.838 C 233.640 223.867,232.563 223.832,232.563 223.759 C 232.563 223.687,233.115 221.566,233.790 219.044 C 234.464 216.523,235.017 214.413,235.017 214.356 C 235.017 214.299,236.113 214.252,237.453 214.252 L 239.890 214.252 239.626 215.243 C 239.481 215.788,239.362 216.340,239.360 216.470 C 239.359 216.653,240.501 216.706,244.448 216.706 L 249.537 216.706 249.747 215.904 C 249.862 215.462,250.297 213.843,250.713 212.304 C 251.554 209.194,251.563 209.338,250.452 207.915 L 249.651 206.890 239.442 206.890 L 229.234 206.890 227.688 208.043 M274.481 208.164 C 275.143 208.865,276.726 210.521,277.998 211.845 L 280.310 214.252 287.835 214.252 L 295.360 214.252 295.065 215.385 L 294.770 216.517 287.215 216.518 L 279.660 216.519 277.723 223.738 C 276.657 227.709,275.786 231.022,275.788 231.100 C 275.789 231.177,278.077 231.241,280.873 231.241 L 285.955 231.241 286.146 230.628 C 286.251 230.290,286.695 228.676,287.133 227.041 L 287.928 224.068 294.185 224.068 L 300.442 224.068 301.944 222.921 C 302.769 222.290,303.504 221.716,303.577 221.647 C 303.790 221.442,306.954 209.470,306.860 209.225 C 306.812 209.102,306.407 208.527,305.959 207.947 L 305.144 206.891 289.210 206.891 L 273.277 206.890 274.481 208.164 M313.446 207.126 C 313.398 207.256,311.968 212.547,310.268 218.884 C 308.568 225.222,307.117 230.595,307.044 230.825 L 306.911 231.244 318.379 231.195 L 329.846 231.147 330.814 227.560 L 331.782 223.974 325.475 223.924 C 320.496 223.885,319.188 223.824,319.260 223.636 C 319.375 223.337,323.738 207.112,323.738 206.984 C 323.738 206.752,313.531 206.893,313.446 207.126 M339.190 217.886 L 336.240 228.882 337.178 230.061 L 338.117 231.241 348.327 231.241 L 358.537 231.241 360.081 230.071 L 361.625 228.901 364.512 218.132 C 366.100 212.208,367.438 207.256,367.486 207.126 C 367.554 206.941,366.459 206.890,362.404 206.890 L 357.235 206.890 354.974 215.383 L 352.714 223.875 350.294 223.877 C 348.079 223.879,347.883 223.851,347.971 223.549 C 348.023 223.367,349.010 219.667,350.164 215.327 C 351.318 210.987,352.309 207.313,352.366 207.163 C 352.456 206.929,351.732 206.890,347.306 206.890 L 342.141 206.890 339.190 217.886 M374.224 208.106 L 372.705 209.307 371.440 214.019 C 369.936 219.622,369.977 218.931,371.060 220.407 L 371.946 221.614 378.246 221.614 C 384.157 221.614,384.541 221.634,384.451 221.944 C 384.399 222.126,384.253 222.635,384.126 223.075 L 383.896 223.875 376.330 223.924 L 368.764 223.974 367.808 227.560 L 366.851 231.147 378.320 231.195 L 389.789 231.244 391.303 230.084 C 392.136 229.446,392.860 228.787,392.912 228.620 C 392.964 228.452,393.643 225.949,394.421 223.057 L 395.836 217.799 395.347 217.158 L 394.858 216.517 387.991 216.517 C 384.214 216.517,381.125 216.454,381.127 216.376 C 381.129 216.298,381.241 215.809,381.375 215.290 L 381.620 214.346 389.193 214.297 C 396.198 214.251,396.774 214.223,396.868 213.920 C 397.096 213.183,398.678 207.163,398.678 207.032 C 398.678 206.954,393.518 206.893,387.211 206.897 L 375.743 206.905 374.224 208.106 M116.470 214.438 C 116.470 214.540,116.215 215.560,115.904 216.706 C 115.592 217.852,115.337 218.830,115.337 218.880 C 115.337 218.930,114.240 218.971,112.898 218.971 L 110.459 218.971 110.834 217.603 C 111.040 216.850,111.333 215.788,111.485 215.243 L 111.761 214.252 114.116 214.252 C 115.533 214.252,116.470 214.326,116.470 214.438 M62.018 235.724 C 91.486 290.355,153.630 322.696,216.423 316.080 C 267.258 310.724,313.795 279.865,337.605 235.724 L 338.496 234.073 335.590 234.073 L 332.685 234.073 331.859 235.536 C 307.026 279.542,259.752 308.667,208.306 311.655 C 151.296 314.967,95.548 284.773,67.763 235.536 L 66.938 234.073 64.032 234.073 L 61.127 234.073 62.018 235.724 " stroke="none" fill="#fff" fill-rule="evenodd"></path></g></svg>