<svg id="svg" xmlns="http://www.w3.org/2000/svg" xmlns:xlink="http://www.w3.org/1999/xlink" width="400" height="58.077709611451944" viewBox="0, 0, 400,58.077709611451944"><g id="svgg"><path id="path0" d="M1.523 2.302 C 1.848 2.668,3.401 4.322,4.976 5.977 L 7.839 8.986 12.908 8.992 C 17.621 8.998,17.983 8.981,18.049 8.759 C 18.234 8.135,19.905 1.806,19.905 1.727 C 19.905 1.677,15.636 1.636,10.419 1.636 L 0.933 1.636 1.523 2.302 M39.235 2.826 L 37.672 4.017 34.744 14.926 L 31.816 25.835 36.856 25.871 C 39.628 25.890,41.921 25.882,41.952 25.851 C 41.982 25.820,42.429 24.218,42.945 22.290 C 43.460 20.363,43.908 18.760,43.939 18.728 C 43.971 18.697,45.068 18.688,46.377 18.708 L 48.758 18.746 47.828 22.154 C 47.317 24.029,46.899 25.639,46.899 25.733 C 46.898 25.866,47.996 25.903,51.932 25.903 L 56.966 25.903 57.106 25.460 C 57.183 25.216,58.510 20.302,60.054 14.539 L 62.862 4.062 61.937 2.849 L 61.012 1.636 50.905 1.636 L 40.797 1.636 39.235 2.826 M69.267 2.147 C 69.192 2.428,67.748 7.810,66.058 14.105 C 64.368 20.401,62.986 25.631,62.986 25.728 C 62.986 26.041,73.033 25.978,73.129 25.665 C 73.170 25.533,73.728 23.463,74.370 21.063 C 75.012 18.664,75.570 16.593,75.610 16.462 C 75.672 16.258,75.854 16.225,76.867 16.230 L 78.050 16.237 78.966 17.441 L 79.881 18.645 78.934 22.104 C 78.413 24.006,77.986 25.640,77.985 25.734 C 77.983 25.871,79.040 25.899,83.047 25.871 L 88.112 25.835 89.385 21.132 C 90.900 15.537,90.852 16.302,89.775 14.923 L 88.888 13.788 90.354 12.665 C 91.160 12.048,91.862 11.507,91.914 11.463 C 91.965 11.420,92.571 9.267,93.260 6.680 C 93.950 4.093,94.543 1.900,94.579 1.806 C 94.630 1.672,93.567 1.636,89.537 1.636 L 84.431 1.636 83.587 4.806 C 82.424 9.175,82.652 8.733,80.858 10.120 L 79.312 11.316 78.155 11.316 L 76.998 11.316 77.090 10.941 C 77.229 10.371,79.484 2.001,79.551 1.806 C 79.597 1.672,78.530 1.636,74.507 1.636 L 69.404 1.636 69.267 2.147 M101.295 2.844 L 99.727 4.051 97.171 13.651 C 95.765 18.931,94.615 23.317,94.615 23.398 C 94.615 23.478,95.015 24.075,95.505 24.724 L 96.394 25.903 107.750 25.903 L 119.106 25.903 120.036 22.393 C 120.548 20.462,120.994 18.805,121.029 18.712 C 121.079 18.577,119.531 18.541,113.570 18.541 C 106.470 18.541,106.052 18.528,106.120 18.303 C 106.159 18.171,106.293 17.651,106.418 17.145 L 106.645 16.226 112.927 16.191 L 119.210 16.155 119.844 13.770 L 120.478 11.384 114.216 11.348 C 109.300 11.320,107.968 11.277,108.020 11.144 C 108.056 11.051,108.195 10.530,108.328 9.986 L 108.571 8.998 116.107 8.998 L 123.643 8.998 123.781 8.487 C 125.016 3.898,125.562 1.829,125.562 1.742 C 125.562 1.684,120.455 1.636,114.213 1.637 L 102.863 1.638 101.295 2.844 M132.391 2.835 L 130.836 4.032 129.564 8.730 C 128.049 14.325,128.088 13.677,129.183 15.079 L 130.076 16.224 136.351 16.224 C 141.316 16.224,142.613 16.259,142.560 16.394 C 142.523 16.488,142.384 17.009,142.251 17.553 L 142.009 18.541 134.472 18.541 L 126.936 18.541 126.799 19.052 C 125.563 23.642,125.017 25.710,125.017 25.797 C 125.017 25.855,130.116 25.903,136.347 25.903 L 147.677 25.903 149.227 24.728 C 150.079 24.081,150.811 23.442,150.854 23.307 C 150.897 23.172,151.571 20.684,152.353 17.777 L 153.774 12.492 153.293 11.904 L 152.811 11.316 145.920 11.316 C 140.466 11.316,139.043 11.280,139.091 11.145 C 139.125 11.051,139.266 10.530,139.405 9.986 L 139.657 8.998 147.197 8.998 C 151.344 8.998,154.738 8.975,154.738 8.946 C 154.738 8.918,155.167 7.298,155.692 5.346 C 156.217 3.394,156.646 1.761,156.646 1.716 C 156.646 1.672,151.539 1.636,145.297 1.637 L 133.947 1.637 132.391 2.835 M179.085 2.352 C 179.462 2.745,181.047 4.402,182.608 6.033 L 185.446 8.998 192.909 8.998 L 200.372 8.998 200.139 9.850 C 200.010 10.319,199.864 10.871,199.814 11.077 L 199.722 11.452 204.812 11.452 L 209.902 11.452 210.885 7.757 L 211.868 4.063 210.965 2.849 L 210.061 1.636 194.231 1.636 L 178.401 1.636 179.085 2.352 M219.207 2.834 L 217.658 4.032 215.104 13.570 C 213.699 18.816,212.548 23.206,212.546 23.326 C 212.544 23.446,212.943 24.075,213.432 24.724 L 214.322 25.903 224.441 25.900 L 234.560 25.898 236.060 24.731 C 236.885 24.089,237.606 23.461,237.662 23.336 C 237.816 22.996,242.808 4.360,242.808 4.126 C 242.808 4.015,242.406 3.410,241.915 2.780 L 241.021 1.636 230.889 1.636 L 220.756 1.636 219.207 2.834 M249.287 1.806 C 249.256 1.900,247.935 6.813,246.352 12.725 L 243.473 23.472 244.400 24.688 L 245.327 25.903 255.433 25.903 L 265.539 25.903 267.100 24.710 L 268.662 23.517 271.592 12.611 L 274.521 1.704 269.482 1.668 C 266.711 1.649,264.416 1.660,264.382 1.694 C 264.348 1.728,263.318 5.509,262.092 10.096 C 260.866 14.684,259.839 18.462,259.808 18.492 C 259.778 18.523,258.681 18.531,257.371 18.510 L 254.989 18.473 257.143 10.429 C 258.327 6.005,259.334 2.217,259.379 2.011 L 259.463 1.636 254.403 1.636 C 250.477 1.636,249.331 1.674,249.287 1.806 M281.598 2.608 C 280.925 3.136,280.236 3.670,280.067 3.795 C 279.807 3.987,279.320 5.663,276.890 14.724 C 275.311 20.610,273.987 25.533,273.947 25.665 C 273.878 25.889,274.180 25.903,278.972 25.903 L 284.070 25.903 286.321 17.485 L 288.573 9.066 290.980 9.029 C 292.304 9.008,293.388 9.045,293.388 9.110 C 293.388 9.174,292.383 12.964,291.156 17.531 L 288.923 25.835 293.971 25.871 C 296.748 25.890,299.040 25.886,299.065 25.861 C 299.090 25.836,300.426 20.917,302.034 14.931 L 304.957 4.045 304.046 2.847 L 303.136 1.649 292.979 1.649 L 282.822 1.649 281.598 2.608 M311.111 1.716 C 311.111 1.761,310.682 3.394,310.157 5.346 C 309.632 7.298,309.202 8.918,309.202 8.946 C 309.202 8.975,310.894 8.998,312.961 8.998 C 316.478 8.998,316.714 9.013,316.645 9.237 C 316.551 9.537,312.388 25.020,312.263 25.530 L 312.171 25.907 317.265 25.871 L 322.358 25.835 324.611 17.451 L 326.864 9.066 330.625 9.030 L 334.385 8.994 335.359 5.392 C 335.894 3.411,336.333 1.755,336.333 1.713 C 336.333 1.671,330.658 1.636,323.722 1.636 C 316.786 1.636,311.111 1.672,311.111 1.716 M339.155 13.676 C 337.378 20.299,335.924 25.760,335.924 25.812 C 335.924 25.864,338.209 25.890,341.001 25.871 L 346.079 25.835 347.030 22.256 L 347.981 18.678 350.414 18.678 C 352.667 18.678,352.842 18.695,352.777 18.916 C 352.618 19.455,350.920 25.790,350.920 25.845 C 350.920 25.877,353.206 25.903,355.999 25.903 L 361.077 25.902 362.392 21.031 L 363.706 16.160 362.835 15.031 C 361.759 13.637,361.693 13.901,363.459 12.558 C 364.281 11.933,364.985 11.320,365.023 11.198 C 365.255 10.448,366.871 4.264,366.871 4.126 C 366.871 4.034,366.468 3.436,365.975 2.797 L 365.079 1.636 353.732 1.636 L 342.385 1.636 339.155 13.676 M371.725 8.165 L 369.970 14.694 370.908 15.932 L 371.847 17.170 378.099 17.174 C 383.043 17.177,384.338 17.214,384.287 17.348 C 384.252 17.442,384.109 17.964,383.969 18.507 L 383.716 19.496 376.180 19.496 C 372.035 19.496,368.643 19.531,368.643 19.573 C 368.643 19.616,368.275 21.023,367.825 22.699 C 367.376 24.376,367.007 25.783,367.007 25.825 C 367.007 25.868,372.115 25.902,378.357 25.901 L 389.707 25.899 391.259 24.703 L 392.811 23.507 395.722 12.674 C 397.323 6.716,398.634 1.794,398.635 1.737 C 398.636 1.679,396.352 1.649,393.559 1.668 L 388.482 1.704 387.378 5.794 C 386.771 8.044,386.232 10.053,386.181 10.259 L 386.089 10.634 383.706 10.634 C 382.065 10.634,381.322 10.587,381.322 10.484 C 381.322 10.402,381.844 8.401,382.481 6.039 C 383.119 3.677,383.640 1.720,383.640 1.690 C 383.640 1.660,381.354 1.636,378.560 1.636 L 373.480 1.636 371.725 8.165 M50.969 10.464 C 50.751 11.270,50.475 12.313,50.355 12.781 L 50.137 13.633 47.691 13.633 C 45.424 13.633,45.249 13.616,45.316 13.395 C 45.381 13.182,45.932 11.137,46.346 9.577 L 46.500 8.998 48.933 8.998 L 51.366 8.998 50.969 10.464 M231.327 9.168 C 231.295 9.262,230.721 11.409,230.051 13.940 L 228.834 18.541 226.399 18.541 C 224.145 18.541,223.968 18.523,224.028 18.303 C 224.064 18.171,224.636 16.024,225.301 13.531 L 226.508 8.998 228.947 8.998 C 230.838 8.998,231.373 9.036,231.327 9.168 M355.366 9.237 C 355.327 9.368,355.193 9.889,355.068 10.395 L 354.841 11.316 352.389 11.316 C 350.485 11.316,349.950 11.277,349.998 11.145 C 350.032 11.051,350.173 10.530,350.311 9.986 L 350.564 8.998 353.001 8.998 C 355.258 8.998,355.432 9.016,355.366 9.237 M7.181 11.418 C 7.148 11.474,6.282 14.680,5.258 18.541 C 4.234 22.403,3.370 25.639,3.338 25.733 C 3.292 25.868,5.612 25.903,14.638 25.903 L 25.995 25.903 26.926 22.393 C 27.438 20.462,27.884 18.806,27.917 18.713 C 27.963 18.580,26.626 18.536,21.717 18.509 L 15.458 18.473 16.314 15.272 C 16.785 13.511,17.207 11.901,17.253 11.693 L 17.336 11.316 12.289 11.316 C 9.513 11.316,7.214 11.362,7.181 11.418 M184.664 11.486 C 184.631 11.580,183.895 14.312,183.028 17.557 L 181.451 23.458 182.375 24.677 L 183.299 25.896 193.422 25.899 L 203.544 25.903 205.042 24.734 C 205.867 24.091,206.574 23.510,206.615 23.444 C 206.704 23.301,208.589 16.390,208.589 16.209 C 208.589 16.135,206.527 16.098,203.519 16.120 L 198.449 16.155 198.329 16.633 C 198.263 16.895,198.117 17.432,198.004 17.825 L 197.799 18.541 195.375 18.541 L 192.950 18.541 193.881 15.099 C 194.393 13.206,194.813 11.580,194.816 11.486 C 194.819 11.353,193.721 11.316,189.771 11.316 C 185.854 11.316,184.709 11.354,184.664 11.486 M0.954 32.687 C 0.954 32.744,2.522 34.431,4.439 36.436 L 7.923 40.082 15.428 40.082 L 22.933 40.082 22.843 40.457 C 22.794 40.663,22.235 42.777,21.601 45.155 C 20.968 47.532,20.450 49.511,20.450 49.551 C 20.450 49.592,19.341 49.625,17.987 49.625 C 15.706 49.625,15.529 49.607,15.592 49.387 C 15.630 49.255,16.036 47.737,16.495 46.012 C 16.953 44.288,17.360 42.769,17.399 42.638 C 17.465 42.414,17.161 42.399,12.357 42.399 L 7.245 42.399 7.041 43.115 C 6.881 43.677,5.418 49.145,3.412 56.680 L 3.294 57.123 14.701 57.120 L 26.108 57.117 27.687 55.888 L 29.267 54.659 31.887 44.915 C 33.342 39.501,34.460 35.095,34.402 35.002 C 34.345 34.909,33.908 34.327,33.431 33.708 L 32.563 32.584 16.759 32.584 C 8.066 32.584,0.954 32.630,0.954 32.687 M273.370 32.717 C 273.395 32.791,274.968 34.478,276.866 36.467 L 280.317 40.082 287.807 40.082 C 295.945 40.082,295.435 40.029,295.167 40.845 C 295.096 41.063,294.970 41.501,294.889 41.820 L 294.741 42.399 287.179 42.399 C 283.021 42.399,279.618 42.433,279.618 42.473 C 279.618 42.554,275.828 56.678,275.732 56.955 C 275.684 57.092,276.720 57.119,280.808 57.091 L 285.944 57.055 286.907 53.442 L 287.870 49.830 294.198 49.794 L 300.525 49.759 302.063 48.586 C 303.198 47.721,303.637 47.300,303.737 46.985 C 304.336 45.090,306.881 35.140,306.801 35.005 C 306.745 34.911,306.307 34.327,305.826 33.708 L 304.954 32.584 289.139 32.584 C 278.841 32.584,273.340 32.630,273.370 32.717 M41.925 33.878 C 41.102 34.506,40.379 35.131,40.320 35.267 C 40.185 35.578,35.174 54.377,35.174 54.573 C 35.174 54.652,35.584 55.258,36.085 55.920 L 36.997 57.123 48.389 57.123 L 59.782 57.122 60.727 53.544 C 61.246 51.576,61.697 49.889,61.730 49.796 C 61.776 49.661,60.226 49.625,54.275 49.625 C 48.355 49.625,46.762 49.589,46.763 49.455 C 46.763 49.361,46.876 48.885,47.014 48.398 L 47.264 47.512 53.552 47.476 L 59.840 47.441 59.999 46.863 C 60.086 46.545,60.390 45.411,60.674 44.342 L 61.191 42.399 54.931 42.399 C 51.488 42.399,48.671 42.353,48.672 42.297 C 48.672 42.241,48.729 41.980,48.799 41.718 C 48.869 41.455,48.994 40.980,49.076 40.661 L 49.227 40.082 56.784 40.082 L 64.341 40.082 64.544 39.366 C 64.994 37.774,66.258 32.967,66.258 32.848 C 66.258 32.769,61.854 32.723,54.840 32.729 L 43.422 32.737 41.925 33.878 M72.047 32.890 C 72.011 32.984,71.563 34.625,71.050 36.537 L 70.118 40.014 73.889 40.050 L 77.660 40.086 75.437 48.357 C 74.214 52.906,73.178 56.739,73.135 56.875 C 73.059 57.112,73.288 57.123,78.172 57.123 L 83.288 57.123 83.439 56.612 C 83.522 56.331,84.555 52.512,85.735 48.125 L 87.881 40.150 91.648 40.114 L 95.415 40.078 95.619 39.364 C 96.115 37.633,97.342 33.011,97.342 32.872 C 97.342 32.638,72.136 32.656,72.047 32.890 M104.345 33.921 L 102.828 35.106 99.940 45.876 C 98.352 51.800,97.022 56.754,96.984 56.885 C 96.918 57.109,97.222 57.123,102.029 57.123 L 107.145 57.123 107.266 56.680 C 107.333 56.437,107.775 54.780,108.249 52.999 L 109.110 49.761 111.542 49.761 C 112.880 49.761,113.974 49.790,113.974 49.825 C 113.974 49.860,113.545 51.457,113.020 53.374 C 112.495 55.291,112.065 56.919,112.065 56.992 C 112.065 57.074,113.970 57.123,117.152 57.123 L 122.238 57.123 125.188 46.130 L 128.139 35.137 127.225 33.932 L 126.312 32.727 116.087 32.732 L 105.862 32.736 104.345 33.921 M134.571 33.231 C 133.646 36.707,128.282 56.659,128.218 56.859 C 128.135 57.122,128.217 57.126,133.274 57.091 L 138.414 57.055 141.602 45.194 C 143.355 38.671,144.826 33.195,144.870 33.027 L 144.951 32.720 139.829 32.720 L 134.707 32.720 134.571 33.231 M147.607 44.760 C 145.830 51.383,144.376 56.873,144.376 56.962 C 144.376 57.085,147.083 57.123,155.737 57.123 L 167.098 57.123 168.075 53.472 C 168.613 51.463,169.052 49.777,169.052 49.724 C 169.052 49.671,166.238 49.612,162.799 49.592 L 156.545 49.557 158.771 41.309 C 159.996 36.772,161.000 32.984,161.003 32.890 C 161.008 32.757,159.904 32.720,155.923 32.720 L 150.838 32.720 147.607 44.760 M176.241 44.820 C 174.458 51.474,173.001 56.965,173.003 57.021 C 173.005 57.077,175.293 57.123,178.088 57.123 L 183.171 57.123 186.355 45.266 C 188.106 38.745,189.568 33.254,189.605 33.065 L 189.671 32.720 184.576 32.721 L 179.482 32.721 176.241 44.820 M196.799 33.692 C 196.126 34.220,195.439 34.753,195.273 34.878 C 195.033 35.059,189.093 56.388,189.093 57.069 C 189.093 57.099,191.392 57.123,194.201 57.123 L 199.308 57.123 199.442 56.612 C 199.515 56.331,200.530 52.531,201.697 48.168 C 202.863 43.804,203.817 40.200,203.817 40.158 C 203.817 40.116,204.926 40.082,206.280 40.082 C 208.562 40.082,208.738 40.099,208.673 40.320 C 208.364 41.371,204.226 56.875,204.226 56.983 C 204.226 57.077,205.923 57.123,209.308 57.123 L 214.389 57.123 217.342 46.126 L 220.294 35.128 219.384 33.931 L 218.473 32.733 208.248 32.733 L 198.023 32.733 196.799 33.692 M227.675 33.907 L 226.106 35.086 223.870 43.480 C 222.641 48.097,221.466 52.499,221.260 53.262 L 220.886 54.650 221.835 55.887 L 222.784 57.123 232.910 57.123 L 243.035 57.123 244.616 55.899 C 245.485 55.226,246.229 54.566,246.269 54.433 C 246.458 53.798,248.807 45.007,248.807 44.934 C 248.807 44.888,245.940 44.867,242.436 44.886 L 236.064 44.922 235.835 45.771 C 235.709 46.238,235.565 46.805,235.515 47.032 L 235.425 47.444 236.663 47.444 C 237.343 47.444,237.900 47.496,237.900 47.560 C 237.900 47.624,237.842 47.854,237.771 48.071 C 237.699 48.288,237.574 48.727,237.493 49.046 L 237.345 49.625 234.887 49.625 L 232.429 49.625 232.527 49.318 C 232.581 49.150,233.158 47.018,233.809 44.581 L 234.993 40.150 237.452 40.113 L 239.911 40.076 239.676 40.931 C 239.547 41.401,239.400 41.955,239.350 42.161 L 239.259 42.536 244.364 42.536 C 249.110 42.536,249.475 42.519,249.539 42.297 C 249.860 41.188,251.397 35.331,251.397 35.217 C 251.397 35.137,250.992 34.543,250.497 33.896 L 249.597 32.720 239.420 32.724 L 229.243 32.727 227.675 33.907 M310.305 44.577 C 308.554 51.098,307.091 56.589,307.055 56.779 L 306.989 57.123 318.389 57.123 C 324.659 57.123,329.789 57.091,329.789 57.051 C 329.789 57.012,330.218 55.371,330.743 53.404 C 331.268 51.438,331.697 49.784,331.697 49.729 C 331.697 49.673,328.885 49.612,325.447 49.592 L 319.196 49.557 321.419 41.309 C 322.641 36.772,323.644 32.984,323.648 32.890 C 323.652 32.757,322.550 32.720,318.571 32.720 L 313.489 32.720 310.305 44.577 M339.209 43.612 C 337.605 49.602,336.330 54.603,336.377 54.725 C 336.424 54.848,336.842 55.437,337.306 56.035 L 338.149 57.123 348.269 57.123 L 358.389 57.123 359.937 55.941 C 360.789 55.291,361.501 54.750,361.519 54.738 C 361.547 54.720,367.078 34.200,367.353 33.095 L 367.446 32.720 362.336 32.720 L 357.227 32.720 356.800 34.322 C 356.566 35.203,355.554 38.991,354.551 42.740 L 352.729 49.557 350.260 49.594 C 348.307 49.623,347.804 49.595,347.855 49.458 C 347.963 49.164,352.284 32.940,352.284 32.826 C 352.284 32.768,349.998 32.720,347.205 32.721 L 342.127 32.722 339.209 43.612 M374.302 33.880 C 373.477 34.512,372.756 35.139,372.700 35.272 C 372.539 35.655,370.143 44.582,370.143 44.799 C 370.143 44.906,370.556 45.545,371.061 46.219 L 371.978 47.444 378.233 47.444 L 384.488 47.444 384.399 47.819 C 384.350 48.025,384.219 48.516,384.108 48.909 L 383.905 49.625 376.342 49.625 C 372.183 49.625,368.780 49.651,368.780 49.682 C 368.780 49.714,368.350 51.344,367.825 53.306 C 367.301 55.268,366.871 56.929,366.871 56.998 C 366.871 57.073,371.424 57.123,378.240 57.123 L 389.609 57.123 391.157 55.941 C 392.009 55.291,392.720 54.751,392.737 54.740 C 392.754 54.729,393.419 52.308,394.214 49.359 C 395.010 46.411,395.688 43.926,395.722 43.838 C 395.755 43.750,395.563 43.390,395.295 43.039 L 394.807 42.399 387.911 42.399 L 381.016 42.399 381.098 41.986 C 381.144 41.759,381.279 41.237,381.398 40.827 L 381.614 40.082 389.166 40.082 L 396.718 40.082 396.869 39.502 C 396.953 39.184,397.384 37.569,397.829 35.914 C 398.273 34.259,398.637 32.863,398.637 32.812 C 398.637 32.761,393.499 32.722,387.219 32.725 L 375.801 32.730 374.302 33.880 M116.564 40.141 C 116.564 40.174,116.288 41.217,115.951 42.460 C 115.613 43.703,115.337 44.750,115.337 44.787 C 115.337 44.823,114.227 44.853,112.869 44.853 C 110.953 44.853,110.414 44.815,110.460 44.683 C 110.493 44.589,110.786 43.516,111.111 42.297 L 111.703 40.082 114.134 40.082 C 115.471 40.082,116.564 40.109,116.564 40.141 " stroke="none" fill="#fff" fill-rule="evenodd"></path></g></svg>