<svg id="svg" xmlns="http://www.w3.org/2000/svg" xmlns:xlink="http://www.w3.org/1999/xlink" width="400" height="90.99999999999999" viewBox="0, 0, 400,90.99999999999999"><g id="svgg"><path id="path0" d="M228.167 1.685 C 204.854 4.080,176.746 14.791,148.000 32.234 C 142.505 35.568,142.372 35.796,145.855 35.931 C 148.290 36.025,148.458 35.981,150.441 34.734 C 167.742 23.853,193.810 12.883,212.667 8.547 C 232.633 3.955,256.612 4.960,296.000 12.037 C 305.730 13.786,308.555 14.760,313.377 18.031 C 318.180 21.289,314.329 25.528,306.000 26.151 C 298.258 26.730,291.314 27.486,282.799 28.677 C 243.734 34.141,204.732 36.506,157.333 36.283 C 97.292 36.001,90.291 36.183,71.833 38.505 C 44.874 41.897,22.556 48.724,7.478 58.190 C 0.367 62.654,-1.369 64.875,0.873 66.638 C 1.858 67.413,1.705 67.474,4.792 65.091 C 12.484 59.153,24.574 53.528,37.626 49.815 C 39.896 49.170,41.809 48.698,41.878 48.767 C 41.947 48.835,40.315 49.386,38.251 49.990 C 28.985 52.703,20.333 56.348,20.333 57.538 C 20.333 58.221,20.680 58.131,23.725 56.656 C 26.798 55.168,41.190 50.344,40.333 51.090 C 40.241 51.170,38.517 52.176,36.500 53.327 C 34.483 54.478,31.451 56.362,29.761 57.512 L 26.689 59.604 17.477 61.770 C 8.130 63.968,7.422 64.214,7.779 65.144 C 8.082 65.936,8.785 65.830,18.572 63.514 L 27.643 61.366 30.572 59.404 C 37.659 54.654,45.717 50.514,51.583 48.610 C 55.122 47.461,56.330 46.248,54.250 45.933 C 53.212 45.776,67.234 43.510,74.333 42.688 C 91.174 40.738,91.991 40.722,162.833 41.030 C 194.450 41.168,200.257 41.050,222.333 39.821 C 244.346 38.595,265.143 36.657,284.667 34.013 C 296.304 32.436,304.627 31.749,326.000 30.599 C 345.993 29.523,379.528 30.168,391.759 31.864 C 393.734 32.138,395.497 32.272,395.675 32.161 C 396.202 31.836,396.077 27.125,395.527 26.575 C 395.086 26.134,387.301 25.018,384.333 24.972 C 379.353 24.893,385.271 23.570,392.585 23.127 L 396.337 22.900 396.135 23.907 C 395.936 24.903,397.300 25.597,398.500 25.110 C 399.583 24.670,400.327 21.353,399.497 20.664 C 398.885 20.156,387.049 20.407,384.667 20.979 C 383.842 21.177,382.829 21.415,382.417 21.509 C 381.772 21.656,381.667 21.895,381.667 23.219 L 381.667 24.758 378.417 24.526 C 375.979 24.353,372.041 23.512,362.667 21.164 C 304.975 6.715,252.784 -0.843,228.167 1.685 M270.451 9.247 C 269.510 9.870,265.971 29.794,266.750 30.084 C 267.346 30.305,274.106 29.345,274.473 28.987 C 274.834 28.634,278.053 11.005,277.855 10.459 C 277.781 10.253,276.471 9.905,274.943 9.686 C 273.416 9.467,271.867 9.222,271.500 9.141 C 271.133 9.060,270.661 9.107,270.451 9.247 M173.750 30.224 C 172.421 31.632,171.333 33.029,171.333 33.328 C 171.333 35.826,177.728 36.112,178.223 33.636 C 178.453 32.483,178.635 32.465,182.688 33.206 C 187.152 34.023,187.948 33.569,187.280 30.592 C 186.668 27.869,186.225 27.667,180.859 27.666 L 176.167 27.664 173.750 30.224 M386.435 32.550 C 386.319 32.852,386.699 34.547,387.279 36.317 C 388.154 38.988,388.333 40.057,388.333 42.612 L 388.333 45.690 391.750 45.595 L 395.167 45.500 395.277 44.534 L 395.387 43.568 392.735 43.750 L 390.082 43.931 390.246 41.882 C 390.374 40.294,390.221 39.216,389.566 37.084 L 388.721 34.334 389.444 34.500 C 394.839 35.739,394.667 35.740,394.667 34.472 C 394.667 33.792,394.325 33.642,390.994 32.861 C 386.653 31.843,386.704 31.847,386.435 32.550 M279.714 35.581 C 278.000 35.678,277.565 35.817,277.436 36.311 C 277.324 36.739,277.070 36.869,276.589 36.743 C 275.772 36.529,275.820 36.841,277.201 40.667 C 280.340 49.369,277.194 62.078,268.008 77.793 C 264.594 83.634,265.753 84.183,269.667 78.579 C 278.719 65.619,282.540 52.494,280.044 42.929 C 279.637 41.366,279.585 40.794,279.873 41.033 C 280.413 41.481,282.029 40.659,282.978 39.452 C 284.441 37.593,284.308 35.287,282.744 35.398 C 282.243 35.433,280.880 35.515,279.714 35.581 M153.091 43.750 C 148.218 51.873,147.024 64.231,150.035 75.388 C 150.777 78.140,151.330 78.975,151.929 78.252 C 152.181 77.949,152.054 77.049,151.486 75.085 C 148.442 64.576,149.622 51.982,154.350 44.527 C 155.357 42.939,155.443 42.000,154.581 42.000 C 154.339 42.000,153.668 42.788,153.091 43.750 M321.878 46.712 C 313.587 47.776,306.486 51.210,300.551 57.025 C 297.571 59.944,297.201 60.697,298.380 61.439 C 298.809 61.710,299.555 61.374,301.880 59.865 C 317.581 49.670,335.188 49.461,349.422 59.301 C 351.710 60.883,356.404 65.280,357.065 66.461 C 357.461 67.169,358.960 67.158,359.234 66.445 C 359.547 65.630,357.942 62.793,355.376 59.623 C 347.683 50.120,334.602 45.078,321.878 46.712 M44.000 48.333 C 42.860 48.698,41.984 48.698,42.833 48.333 C 43.200 48.176,43.800 48.051,44.167 48.057 C 44.703 48.065,44.670 48.119,44.000 48.333 M122.000 49.851 C 112.375 50.458,103.900 51.002,103.167 51.061 C 100.490 51.273,101.109 51.817,120.167 66.014 L 138.500 79.672 142.329 79.586 C 145.671 79.511,146.173 79.426,146.270 78.917 C 146.356 78.471,146.157 78.333,145.432 78.333 C 144.047 78.333,135.856 72.279,135.843 71.244 C 135.835 70.641,135.615 70.479,134.678 70.390 C 132.947 70.226,122.659 62.601,122.904 61.664 C 123.052 61.100,122.909 60.998,121.956 60.988 C 121.066 60.979,119.901 60.287,116.343 57.655 C 113.874 55.828,111.947 54.333,112.061 54.333 C 112.780 54.333,141.798 49.980,141.925 49.853 C 142.012 49.766,141.994 49.464,141.885 49.181 C 141.646 48.558,143.486 48.496,122.000 49.851 M63.318 51.366 C 55.734 52.347,47.840 56.231,42.324 61.696 C 38.158 65.823,38.923 67.638,43.550 64.606 C 61.833 52.624,83.563 54.455,97.241 69.132 C 100.884 73.041,102.634 72.377,100.051 68.066 C 92.907 56.144,78.172 49.445,63.318 51.366 M114.121 57.838 C 118.384 60.982,118.401 61.000,117.121 60.991 C 115.699 60.982,107.508 55.251,108.403 54.892 C 109.395 54.494,110.034 54.824,114.121 57.838 M125.551 66.209 C 128.456 68.340,130.896 70.140,130.972 70.209 C 131.049 70.277,130.512 70.333,129.779 70.333 C 128.643 70.333,120.345 64.790,118.059 62.504 C 117.966 62.410,118.424 62.333,119.078 62.333 C 120.071 62.333,121.142 62.975,125.551 66.209 M137.021 74.690 C 142.224 78.485,142.081 78.333,140.457 78.333 C 139.275 78.333,138.582 77.935,134.667 75.000 L 130.219 71.667 131.548 71.667 C 132.695 71.667,133.443 72.080,137.021 74.690 M139.000 83.139 C 122.486 88.900,122.148 89.037,122.448 89.819 C 122.693 90.457,121.323 90.467,142.000 89.670 C 151.442 89.305,183.017 88.106,212.167 87.005 C 272.774 84.715,267.131 84.994,267.265 84.286 C 267.398 83.582,264.285 83.462,233.667 82.989 C 221.108 82.795,198.533 82.419,183.500 82.154 C 168.467 81.889,153.242 81.675,149.667 81.679 L 143.167 81.685 139.000 83.139 " stroke="none" fill="#ff0000" fill-rule="evenodd"></path></g></svg>